<?xml version="1.0" encoding="UTF-8" standalone="no"?>
<svg
   xmlns:dc="http://purl.org/dc/elements/1.1/"
   xmlns:cc="http://creativecommons.org/ns#"
   xmlns:rdf="http://www.w3.org/1999/02/22-rdf-syntax-ns#"
   xmlns:svg="http://www.w3.org/2000/svg"
   xmlns="http://www.w3.org/2000/svg"
   xmlns:sodipodi="http://sodipodi.sourceforge.net/DTD/sodipodi-0.dtd"
   xmlns:inkscape="http://www.inkscape.org/namespaces/inkscape"
   version="1.1"
   id="svg2"
   xml:space="preserve"
   width="420"
   height="101.33333"
   viewBox="0 0 420 101.33333"
   sodipodi:docname="customcolor_logo_transparent_background.eps"><metadata
     id="metadata8"><rdf:RDF><cc:Work
         rdf:about=""><dc:format>image/svg+xml</dc:format><dc:type
           rdf:resource="http://purl.org/dc/dcmitype/StillImage" /></cc:Work></rdf:RDF></metadata><defs
     id="defs6" /><sodipodi:namedview
     pagecolor="#ffffff"
     bordercolor="#666666"
     borderopacity="1"
     objecttolerance="10"
     gridtolerance="10"
     guidetolerance="10"
     inkscape:pageopacity="0"
     inkscape:pageshadow="2"
     inkscape:window-width="640"
     inkscape:window-height="480"
     id="namedview4" /><g
     id="g10"
     inkscape:groupmode="layer"
     inkscape:label="ink_ext_XXXXXX"
     transform="matrix(1.3333333,0,0,-1.3333333,0,101.33333)"><g
       id="g12"
       transform="scale(0.1)"><path
         d="M 92.5391,97.9688 H 50.4688 v -1.25 l 2.4609,-0.9375 c 3.9101,-1.5625 6.3711,-5.2696 6.3711,-9.4532 v -71.25 c 0,-4.1797 -2.461,-7.92966 -6.3711,-9.48826 L 50.4688,4.69141 v -1.25 h 42.0703 c 32.4219,0 46.0899,20.61719 46.0899,47.02739 0,26.2109 -13.668,47.0312 -46.0899,47.0312 z m 0,-87.8477 H 72.9688 v 80.5391 h 19.5703 c 21.5629,0 32.4219,-14.7188 32.4219,-40.3516 0,-25.6172 -10.859,-40.34766 -32.4219,-40.34766 z"
         style="fill:#de7c00;fill-opacity:1;fill-rule:nonzero;stroke:none"
         id="path14" /><path
         d="m 294.102,22.3789 -7.301,-8.2383 c -1.84,-2.1914 -4.653,-3.4023 -7.422,-3.4023 h -31.84 v 39.4219 h 14.141 c 4.179,0 7.89,-2.5 9.449,-6.3711 l 0.16,-0.1602 h 1.25 v 20.043 h -1.25 l -0.16,-0.1524 c -1.559,-3.9101 -5.27,-6.3711 -9.449,-6.3711 h -14.141 v 34.3008 h 26.09 c 2.781,0 5.59,-1.25 7.422,-3.3984 l 7.308,-8.25 1.25,0.1601 -2.66,18.3204 h -61.91 v -1.25 l 2.461,-0.9415 c 3.91,-1.5585 6.371,-5.2695 6.371,-9.4492 v -71.25 c 0,-4.1797 -2.461,-7.92966 -6.371,-9.49216 L 225.039,5 V 3.75 h 67.5 l 2.813,18.3203 z"
         style="fill:#de7c00;fill-opacity:1;fill-rule:nonzero;stroke:none"
         id="path16" /><path
         d="m 416.449,59.4492 c -10.277,5.9024 -20.668,9.961 -20.668,19.5703 0,9.0313 10.86,12.4297 18.168,12.4297 17.223,0 23.281,-12.8984 23.281,-12.8984 l 1.25,0.1601 -2.66,18.3204 -1.211,-0.1524 -1.879,-3.8672 c -5.742,3.2383 -12.73,5.1094 -18.941,5.1094 -16.758,0 -28.711,-9.332 -28.711,-23.7422 0,-15.2383 12.582,-19.8906 24.063,-26.4101 10.39,-5.8985 17.539,-12.1094 17.539,-19.2188 0,-12.2695 -7.461,-17.6992 -18.16,-17.6992 -18.321,0 -25.79,17.2305 -25.79,17.2305 h -1.21 V 9.80078 h 1.21 l 2.348,3.39842 c 8.402,-7.89061 16.91,-8.98045 23.594,-8.98045 16.598,0 31.68,10.08205 31.68,24.53125 0,19.3711 -12.422,24.3398 -24.063,31.0195 z"
         style="fill:#de7c00;fill-opacity:1;fill-rule:nonzero;stroke:none"
         id="path18" /><path
         d="M 561.949,97.9688 H 526.68 v -1.25 l 2.5,-0.9375 c 3.871,-1.5625 6.371,-5.2696 6.371,-9.4532 v -71.25 c 0,-4.1797 -2.5,-7.92966 -6.371,-9.48826 l -2.5,-0.89843 v -1.25 h 31.371 v 1.25 l -2.461,0.89843 c -3.91,1.5586 -6.371,5.30856 -6.371,9.48826 v 33.043 h 12.73 c 26.531,0 32.582,11.1797 32.582,24.6875 0,13.6719 -6.051,24.6914 -32.582,24.6914 z m 0,-43.168 h -12.73 v 35.8594 h 12.73 c 8.211,0 18.91,-2.3399 18.91,-18 0,-15.6719 -10.699,-18.0118 -18.91,-18.0118 z"
         style="fill:#de7c00;fill-opacity:1;fill-rule:nonzero;stroke:none"
         id="path20" /><path
         d="m 751.719,22.3789 -7.27,-8.2383 c -1.871,-2.1914 -4.679,-3.4023 -7.461,-3.4023 H 705.16 v 39.4219 h 14.141 c 4.179,0 7.89,-2.5 9.449,-6.3711 l 0.16,-0.1602 h 1.25 v 20.043 h -1.25 l -0.16,-0.1524 c -1.559,-3.9101 -5.27,-6.3711 -9.449,-6.3711 H 705.16 v 34.3008 h 26.09 c 2.77,0 5.59,-1.25 7.461,-3.3984 l 7.269,-8.25 1.25,0.1601 -2.621,18.3204 H 682.66 v -1.25 l 2.5,-0.9415 c 3.86,-1.5585 6.36,-5.2695 6.36,-9.4492 v -71.25 c 0,-4.1797 -2.5,-7.92966 -6.36,-9.49216 L 682.66,5 V 3.75 h 67.539 l 2.77,18.3203 z"
         style="fill:#de7c00;fill-opacity:1;fill-rule:nonzero;stroke:none"
         id="path22" /><path
         d="m 922.191,5.89844 c -4.339,1.72265 -7.89,5.15236 -9.921,9.49216 -1.719,3.8711 -3.872,8.668 -6.372,14.0977 -3.238,7.3125 -6.839,15.082 -11.796,20.8203 13.519,3.7109 17.07,12.7422 17.07,23.1328 0,13.668 -6.051,24.6797 -32.582,24.6797 h -35.231 v -1.2422 l 2.461,-0.9375 c 3.91,-1.5625 6.371,-5.2812 6.371,-9.4609 v -71.25 c 0,-4.1797 -2.461,-7.92972 -6.371,-9.49222 l -2.461,-0.89844 v -1.25 h 31.332 v 1.25 l -2.461,0.89844 c -3.91,1.5625 -6.371,5.31252 -6.371,9.49222 v 33.0508 h 11.172 c 6.367,0 10.547,-11.8008 16.289,-24.5313 6.84,-15.19922 9.02,-20 9.02,-20 h 21.879 V 5 Z M 886.48,56.2109 c -2.609,-0.7812 -5.429,-1.0898 -8.039,-1.0898 h -12.742 v 35.8594 h 12.742 c 8.2,0 18.938,-2.3516 18.938,-18.0117 0,-10.6993 -5,-15.1993 -10.738,-16.918 z"
         style="fill:#de7c00;fill-opacity:1;fill-rule:nonzero;stroke:none"
         id="path24" /><path
         d="m 1091.88,97.9688 h -81.96 l -2.65,-18.3204 1.25,-0.1601 7.3,8.2422 c 1.88,2.1484 4.65,3.3984 7.46,3.3984 h 20.78 V 15.2305 c 0,-4.1797 -2.5,-7.92972 -6.36,-9.49222 l -2.47,-0.89844 v -1.25 h 31.33 v 1.25 l -2.46,0.89844 c -3.9,1.5625 -6.37,5.31252 -6.37,9.49222 v 75.8984 h 20.79 c 2.81,0 5.58,-1.25 7.46,-3.3984 l 7.3,-8.2422 1.25,0.1601 z"
         style="fill:#de7c00;fill-opacity:1;fill-rule:nonzero;stroke:none"
         id="path26" /><path
         d="m 1256.52,6.37109 c -4.68,1.86719 -8.4,5.57811 -10.27,10.26951 l -31.33,81.3282 h -7.3 l -31.68,-82.1094 c -1.84,-4.6485 -5.59,-8.39846 -10.24,-10.26956 l -1.25,-0.42968 v -1.25 h 25.63 v 1.25 l -4.81,1.82812 c -2.65,0.94141 -3.9,3.91012 -2.97,6.53122 l 10.08,26.25 h 31.53 l 9.92,-25.9414 c 0.94,-2.6172 -0.28,-5.58982 -2.93,-6.52732 l -5.59,-2.14062 v -1.25 h 34.77 v 1.25 z m -61.48,40.07811 13.2,33.9805 13.21,-33.9805 z"
         style="fill:#de7c00;fill-opacity:1;fill-rule:nonzero;stroke:none"
         id="path28" /><path
         d="m 1440.16,95.9414 2.5,0.9375 v 1.2422 h -24.54 v -1.2422 l 2.5,-0.9375 c 3.87,-1.5625 6.37,-5.2812 6.37,-9.4609 V 27.0313 l -50.94,70.7773 h -24.68 v -1.25 l 2.5,-0.9375 c 3.86,-1.5195 6.36,-5.2695 6.36,-9.4492 v -71.25 c 0,-4.1836 -2.5,-7.93362 -6.36,-9.45315 l -2.5,-0.9375 v -1.25 h 24.53 v 1.25 l -2.46,0.9375 c -3.91,1.51953 -6.37,5.26955 -6.37,9.45315 v 72.0273 l 59.92,-83.35936 h 15.67 v 1.25 l -2.5,0.89844 c -3.87,1.5625 -6.37,5.31252 -6.37,9.49222 v 71.25 c 0,4.1797 2.5,7.8984 6.37,9.4609 z"
         style="fill:#de7c00;fill-opacity:1;fill-rule:nonzero;stroke:none"
         id="path30" /><path
         d="m 1579.96,97.9688 h -42.07 v -1.25 l 2.5,-0.9375 c 3.87,-1.5625 6.33,-5.2696 6.33,-9.4532 v -71.25 c 0,-4.1797 -2.46,-7.92966 -6.33,-9.48826 l -2.5,-0.89843 v -1.25 h 42.07 c 32.42,0 46.09,20.61719 46.09,47.02739 0,26.2109 -13.67,47.0312 -46.09,47.0312 z m 0,-87.8477 h -19.57 v 80.5391 h 19.57 c 21.56,0 32.42,-14.7188 32.42,-40.3516 0,-25.6172 -10.86,-40.34766 -32.42,-40.34766 z"
         style="fill:#de7c00;fill-opacity:1;fill-rule:nonzero;stroke:none"
         id="path32" /><path
         d="m 1771.48,97.9688 c -25.15,0 -49.06,-16.4493 -49.06,-47.1875 0,-30.5821 23.91,-47.0313 49.06,-47.0313 25.16,0 48.91,16.4492 48.91,47.0313 0,30.7382 -23.75,47.1875 -48.91,47.1875 z m 0,-87.379 c -21.56,0 -35.86,18 -35.86,40.1915 0,22.1875 14.3,40.1992 35.86,40.1992 21.61,0 35.71,-18.0117 35.71,-40.1992 0,-22.1915 -14.1,-40.1915 -35.71,-40.1915 z"
         style="fill:#de7c00;fill-opacity:1;fill-rule:nonzero;stroke:none"
         id="path34" /><path
         d="m 2045,59.4492 c -10.23,5.9024 -20.62,9.961 -20.62,19.5703 0,9.0313 10.85,12.4297 18.12,12.4297 17.27,0 23.32,-12.8984 23.32,-12.8984 l 1.21,0.1601 -2.62,18.3204 -1.25,-0.1524 -1.87,-3.8672 c -5.74,3.2383 -12.74,5.1094 -18.95,5.1094 -16.75,0 -28.71,-9.332 -28.71,-23.7422 0,-15.2383 12.58,-19.8906 24.07,-26.4101 10.42,-5.8985 17.53,-12.1094 17.53,-19.2188 0,-12.2695 -7.42,-17.6992 -18.16,-17.6992 -18.32,0 -25.74,17.2305 -25.74,17.2305 h -1.25 V 9.80078 h 1.25 l 2.3,3.39842 c 8.4,-7.89061 16.92,-8.98045 23.6,-8.98045 16.64,0 31.68,10.08205 31.68,24.53125 0,19.3711 -12.43,24.3398 -24.07,31.0195 z"
         style="fill:#de7c00;fill-opacity:1;fill-rule:nonzero;stroke:none"
         id="path36" /><path
         d="m 2252.3,6.37109 c -4.64,1.86719 -8.39,5.57811 -10.23,10.26951 l -31.37,81.3282 h -7.3 l -31.64,-82.1094 c -1.88,-4.6485 -5.59,-8.39846 -10.28,-10.26956 l -1.21,-0.42968 v -1.25 h 25.59 v 1.25 l -4.81,1.82812 c -2.65,0.94141 -3.86,3.91012 -2.93,6.53122 l 10.08,26.25 h 31.53 l 9.92,-25.9414 c 0.94,-2.6172 -0.31,-5.58982 -2.97,-6.52732 l -5.59,-2.14062 v -1.25 h 34.77 v 1.25 z m -61.48,40.07811 13.2,33.9805 13.21,-33.9805 z"
         style="fill:#de7c00;fill-opacity:1;fill-rule:nonzero;stroke:none"
         id="path38" /><path
         d="m 2400.08,55.1211 c 7.46,4.0195 12.11,10.5391 12.11,19.0977 0,20.3125 -14.46,23.75 -32.46,23.75 h -35.24 v -1.25 l 2.5,-0.9375 c 3.87,-1.5625 6.37,-5.2696 6.37,-9.4532 v -71.25 c 0,-4.1797 -2.5,-7.92966 -6.37,-9.48826 l -2.5,-0.89843 v -1.25 h 38.99 c 22.97,0 36.75,9.91799 36.75,26.67969 0,12.1094 -7.42,20.6602 -20.31,24.3672 z m -20.51,35.5391 c 8.24,0 18.79,-2.1797 18.79,-16.9102 0,-14.7695 -10.55,-16.9102 -18.79,-16.9102 h -12.69 v 33.9805 z m 3.75,-80.3907 h -16.44 V 50 h 16.44 c 16.76,0 23.13,-5.5898 23.13,-19.8789 0,-16.6016 -12.43,-19.8516 -23.29,-19.8516 z"
         style="fill:#de7c00;fill-opacity:1;fill-rule:nonzero;stroke:none"
         id="path40" /><path
         d="m 2563.55,97.9688 c -25.15,0 -49.06,-16.4493 -49.06,-47.1875 0,-30.5821 23.91,-47.0313 49.06,-47.0313 25.16,0 48.91,16.4492 48.91,47.0313 0,30.7382 -23.75,47.1875 -48.91,47.1875 z m 0,-87.379 c -21.56,0 -35.85,18 -35.85,40.1915 0,22.1875 14.29,40.1992 35.85,40.1992 21.57,0 35.71,-18.0117 35.71,-40.1992 0,-22.1915 -14.14,-40.1915 -35.71,-40.1915 z"
         style="fill:#de7c00;fill-opacity:1;fill-rule:nonzero;stroke:none"
         id="path42" /><path
         d="m 2781.21,5.89844 c -4.33,1.72265 -7.93,5.15236 -9.92,9.49216 -1.72,3.8711 -3.91,8.668 -6.37,14.0977 -3.28,7.3125 -6.83,15.082 -11.8,20.8203 13.48,3.7109 17.08,12.7422 17.08,23.1328 0,13.668 -6.06,24.6797 -32.62,24.6797 h -35.24 v -1.2422 l 2.5,-0.9375 c 3.87,-1.5625 6.37,-5.2812 6.37,-9.4609 v -71.25 c 0,-4.1797 -2.5,-7.92972 -6.37,-9.49222 l -2.5,-0.89844 v -1.25 h 31.37 v 1.25 l -2.5,0.89844 c -3.87,1.5625 -6.33,5.31252 -6.33,9.49222 v 33.0508 h 11.17 c 6.37,0 10.55,-11.8008 16.29,-24.5313 6.84,-15.19922 8.99,-20 8.99,-20 h 21.91 V 5 Z m -35.7,50.31246 c -2.62,-0.7812 -5.43,-1.0898 -8.09,-1.0898 h -12.69 v 35.8594 h 12.69 c 8.24,0 18.95,-2.3516 18.95,-18.0117 0,-10.6993 -4.96,-15.1993 -10.71,-16.918 z"
         style="fill:#de7c00;fill-opacity:1;fill-rule:nonzero;stroke:none"
         id="path44" /><path
         d="m 2937.66,22.3789 -7.27,-8.2383 c -1.87,-2.1914 -4.69,-3.4023 -7.46,-3.4023 h -31.84 v 39.4219 h 14.14 c 4.18,0 7.89,-2.5 9.46,-6.3711 l 0.15,-0.1602 h 1.25 v 20.043 h -1.25 l -0.15,-0.1524 c -1.57,-3.9101 -5.28,-6.3711 -9.46,-6.3711 h -14.14 v 34.3008 h 26.1 c 2.77,0 5.58,-1.25 7.46,-3.3984 l 7.26,-8.25 1.25,0.1601 -2.61,18.3204 h -61.96 v -1.25 l 2.5,-0.9415 c 3.87,-1.5585 6.37,-5.2695 6.37,-9.4492 v -71.25 c 0,-4.1797 -2.5,-7.92966 -6.37,-9.49216 L 2868.59,5 V 3.75 h 67.54 l 2.78,18.3203 z"
         style="fill:#de7c00;fill-opacity:1;fill-rule:nonzero;stroke:none"
         id="path46" /><path
         d="m 3060,59.4492 c -10.23,5.9024 -20.66,9.961 -20.66,19.5703 0,9.0313 10.89,12.4297 18.16,12.4297 17.23,0 23.28,-12.8984 23.28,-12.8984 l 1.25,0.1601 -2.62,18.3204 -1.25,-0.1524 -1.87,-3.8672 c -5.74,3.2383 -12.74,5.1094 -18.95,5.1094 -16.75,0 -28.71,-9.332 -28.71,-23.7422 0,-15.2383 12.58,-19.8906 24.07,-26.4101 10.39,-5.8985 17.53,-12.1094 17.53,-19.2188 0,-12.2695 -7.46,-17.6992 -18.16,-17.6992 -18.32,0 -25.74,17.2305 -25.74,17.2305 h -1.25 V 9.80078 h 1.25 l 2.3,3.39842 c 8.4,-7.89061 16.92,-8.98045 23.6,-8.98045 16.6,0 31.68,10.08205 31.68,24.53125 0,19.3711 -12.43,24.3398 -24.07,31.0195 z"
         style="fill:#de7c00;fill-opacity:1;fill-rule:nonzero;stroke:none"
         id="path48" /><path
         d="M 0.46875,322.109 C 22.6602,221.52 138.789,175.66 233.48,175.66 c 45.86,0 80.622,11.84 106.481,31.059 13.32,10.351 -19.961,35.511 -11.84,48.832 1.488,2.219 9.649,2.969 19.258,2.969 14.812,0 34.031,-1.489 35.512,2.929 9.609,20.742 14.019,44.41 14.019,68.039 0,203.442 -227.808,179.774 -227.808,250.043 0,23.668 23.668,34.77 44.378,34.77 40.7,0 58.43,-28.129 64.372,-65.86 2.226,-10.351 21.449,-12.582 42.886,-10.351 3.711,0 -5.148,17.769 -1.476,18.512 5.187,0.738 28.117,-8.161 31.789,-11.832 -5.153,-2.231 -6.641,-2.969 0,-1.489 0.75,0 0.75,0.739 0,1.489 10.398,4.41 35.508,14.058 35.508,17.73 0,101.328 -78.399,197.5 -187.11,197.5 -50.308,0 -90.969,-14.059 -127.2185,-44.379 -5.1992,-3.711 3.6679,-42.141 0,-46.601 -6.6797,-7.379 -26.6407,18.48 -31.1016,10.359 -13.2773,-22.188 -21.4375,-47.348 -21.4375,-77.66 0,-193.047 245.5786,-181.949 245.5786,-253.707 0,-25.16 -23.668,-34.774 -56.95,-34.774 -58.441,0 -99.84,58.442 -112.4216,82.114 -2.2265,3.668 -5.9375,5.16 -10.3476,5.16 -13.3203,0 -33.3203,-11.84 -50.3203,-26.602 -3.711,-2.969 8.8711,-69.531 5.1992,-73.25 -4.4492,-3.711 -23.668,55.469 -27.3789,51.059 -8.87111,-11.84 -14.81252,-22.231 -12.58205,-29.61 z"
         style="fill:#de7c00;fill-opacity:1;fill-rule:nonzero;stroke:none"
         id="path50" /><path
         d="m 449.449,615.781 c 0,-10.39 42.153,-22.23 42.153,-34.019 0.738,-16.293 -40.661,-31.84 -40.661,-48.832 2.969,-141.289 8.86,-307.7 9.61,-335.078 2.969,-6.68 39.219,-10.352 75.429,-10.352 36.25,0 72.5,3.672 75.469,10.352 2.961,18.476 6.641,57.699 8.86,105.039 C 676.52,251.09 744.57,189.73 749.02,186.02 c 11.101,-9.61 107.269,66.558 98.359,76.91 -2.18,2.968 -9.609,10.351 -31.051,34.769 -5.199,5.192 -18.476,0 -23.668,5.93 -0.75,0.75 5.192,19.223 -2.23,26.601 -14.059,14.071 -69.532,74.731 -109.45,119.11 48.079,52.5 102.071,110.93 113.899,122.769 7.391,7.422 -4.449,28.121 -3.707,28.871 5.199,5.899 19.258,0.739 23.668,5.899 22.191,24.41 23.68,40.699 25.898,42.922 22.934,22.929 -48.828,88.008 -65.816,88.008 -14.801,0 -96.172,-101.329 -149.41,-170.11 0,77.653 -1.492,140.539 -5.203,159.02 -1.481,7.383 -35.508,10.351 -73.239,10.351 -45.859,0 -96.129,-4.449 -96.129,-10.351 -2.23,-15.547 -2.23,-56.949 -1.492,-110.938 z"
         style="fill:#da291c;fill-opacity:1;fill-rule:nonzero;stroke:none"
         id="path52" /><path
         d="m 859.219,201.559 c 0,-2.219 38.48,-3.707 77.691,-3.707 38.442,0 76.92,1.488 76.92,3.707 0,0.742 4.41,21.453 12.58,54.73 h 131.64 c 1.48,-5.937 -12.58,-28.129 -11.1,-33.277 3.71,-17.032 5.94,-21.453 5.94,-21.453 0,-2.219 38.44,-3.707 77.66,-3.707 38.47,0 76.91,1.488 76.91,3.707 0,14.031 -58.44,256.64 -91.72,398.671 -1.48,5.899 -28.83,15.551 -30.31,20.711 -2.23,8.118 48.83,27.379 48.83,34.758 0.74,27.391 -1.49,89.5 -2.97,89.5 h -228.56 c -1.48,0 -75.46,-239.648 -117.609,-400.898 -4.461,-17 48.828,-14.813 45.109,-29.571 -2.218,-8.871 -52.5,-20 -54.718,-28.128 -9.614,-42.153 -16.293,-73.204 -16.293,-85.043 z m 224.141,339.492 c 10.35,-42.891 19.96,-119.102 29.57,-159.762 h -58.44 c 9.61,40.66 19.26,116.871 28.87,159.762 z"
         style="fill:#da291c;fill-opacity:1;fill-rule:nonzero;stroke:none"
         id="path54" /><path
         d="m 1563.4,175.66 c 64.33,0 114.65,11.84 149.41,48.828 9.61,9.614 -28.83,45.121 -22.19,58.442 4.46,8.121 50.32,-25.16 53.99,-16.289 16.29,42.89 28.12,117.621 28.12,195.269 v 249.262 c 0,13.316 -24.41,26.637 -75.46,26.637 -51.02,0 -82.07,-7.379 -82.07,-36.989 0,-78.398 2.92,-157.539 2.92,-235.941 0,-126.481 -22.18,-148.668 -54.72,-148.668 -47.35,0 -58.44,31.801 -58.44,145.699 0,79.891 8.13,154.57 8.13,237.43 0,31.09 -38.44,38.469 -73.21,38.469 -64.37,0 -93.2,-9.61 -92.46,-32.539 v -39.961 c 0,-8.118 48.09,-27.34 48.09,-36.25 0,-11.09 -49.57,-13.278 -49.57,-25.86 -0.74,-38.469 -1.49,-81.359 -1.49,-119.84 0,-170.859 33.28,-307.699 218.95,-307.699 z"
         style="fill:#da291c;fill-opacity:1;fill-rule:nonzero;stroke:none"
         id="path56" /><path
         d="m 1839.3,723.012 c 0,-41.41 2.97,-76.922 2.97,-82.852 0,-9.609 37.69,-18.48 37.69,-26.609 0,-10.352 -37.69,-20.699 -37.69,-31.09 V 564.73 c 0,-90.242 -0.75,-136.839 -1.49,-230.039 0,-2.972 20.7,-34.769 20.7,-37.742 0,-5.898 -20.7,-32.539 -20.7,-36.988 V 198.59 c 16.99,-5.192 94.69,-8.121 116.88,-7.418 21.44,-0.703 53.24,-0.703 125.74,-0.703 92.46,0 153.08,119.062 172.34,207.109 6.64,28.832 -31.09,36.953 -31.09,62.113 0,13.321 29.61,25.149 28.87,36.989 -17.04,247.769 -145.71,247.031 -230.79,247.031 h -59.92 C 1874.8,748.91 1839.3,737.07 1839.3,723.012 Z m 157.54,-97.621 h 34.76 c 65.12,0 93.95,-68.051 93.95,-165.7 0,-123.519 -56.21,-150.16 -79.89,-150.16 h -56.21 c 0,22.93 7.39,292.93 7.39,315.86 z"
         style="fill:#da291c;fill-opacity:1;fill-rule:nonzero;stroke:none"
         id="path58" /><path
         d="m 2282.34,201.559 c 0,-2.219 38.48,-3.707 77.7,-3.707 38.44,0 76.91,1.488 76.91,3.707 0,0.742 4.46,21.453 12.58,54.73 h 131.64 c 1.49,-5.937 -12.54,-28.129 -11.09,-33.277 3.71,-17.032 5.94,-21.453 5.94,-21.453 0,-2.219 38.47,-3.707 77.65,-3.707 38.48,0 76.92,1.488 76.92,3.707 0,14.031 -58.4,256.64 -91.72,398.671 -1.45,5.899 -28.83,15.551 -30.32,20.711 -2.22,8.118 48.83,27.379 48.83,34.758 0.74,27.391 -1.48,89.5 -2.97,89.5 h -228.55 c -1.48,0 -75.43,-239.648 -117.62,-400.898 -4.41,-17 48.83,-14.813 45.12,-29.571 -2.23,-8.871 -52.5,-20 -54.73,-28.128 -9.61,-42.153 -16.29,-73.204 -16.29,-85.043 z m 224.14,339.492 c 10.36,-42.891 19.97,-119.102 29.57,-159.762 h -58.43 c 9.65,40.66 19.26,116.871 28.86,159.762 z"
         style="fill:#da291c;fill-opacity:1;fill-rule:nonzero;stroke:none"
         id="path60" /><path
         d="m 2753.52,322.109 c 22.22,-100.589 138.32,-146.449 233,-146.449 45.86,0 80.63,11.84 106.53,31.059 13.32,10.351 -19.96,35.511 -11.84,48.832 1.49,2.219 9.61,2.969 19.22,2.969 14.8,0 34.02,-1.489 35.51,2.929 9.61,20.742 14.06,44.41 14.06,68.039 0,203.442 -227.81,179.774 -227.81,250.043 0,23.668 23.67,34.77 44.37,34.77 40.67,0 58.44,-28.129 64.34,-65.86 2.22,-10.351 21.44,-12.582 42.93,-10.351 3.67,0 -5.2,17.769 -1.49,18.512 5.16,0.738 28.09,-8.161 31.8,-11.832 -5.19,-2.231 -6.64,-2.969 0,-1.489 0.74,0 0.74,0.739 0,1.489 10.35,4.41 35.51,14.058 35.51,17.73 0,101.328 -78.4,197.5 -187.15,197.5 -50.27,0 -90.98,-14.059 -127.23,-44.379 -5.15,-3.711 3.71,-42.141 0,-46.601 -6.64,-7.379 -26.6,18.48 -31.05,10.359 -13.32,-22.188 -21.45,-47.348 -21.45,-77.66 0,-193.047 245.55,-181.949 245.55,-253.707 0,-25.16 -23.63,-34.774 -56.95,-34.774 -58.44,0 -99.85,58.442 -112.42,82.114 -2.23,3.668 -5.9,5.16 -10.36,5.16 -13.32,0 -33.28,-11.84 -50.31,-26.602 -3.67,-2.969 8.91,-69.531 5.2,-73.25 -4.46,-3.711 -23.68,55.469 -27.39,51.059 -8.86,-11.84 -14.76,-22.231 -12.57,-29.61 z"
         style="fill:#da291c;fill-opacity:1;fill-rule:nonzero;stroke:none"
         id="path62" /></g></g></svg>
